# Blender v2.93.4 OBJ File: ''
# www.blender.org
mtllib Lamp.mtl
o Lamp_Cylinder.005
v 0.000000 0.800000 -0.150000
v 0.000000 1.200000 -0.150000
v 0.057402 1.200000 -0.138582
v 0.057402 0.800000 -0.138582
v 0.106066 1.200000 -0.106066
v 0.106066 0.800000 -0.106066
v 0.138582 1.200000 -0.057402
v 0.138582 0.800000 -0.057402
v 0.150000 1.200000 -0.000000
v 0.150000 0.800000 -0.000000
v 0.138582 1.200000 0.057403
v 0.138582 0.800000 0.057403
v 0.106066 1.200000 0.106066
v 0.106066 0.800000 0.106066
v 0.057402 1.200000 0.138582
v 0.057402 0.800000 0.138582
v 0.000000 1.200000 0.150000
v 0.000000 0.800000 0.149999
v -0.057403 1.200000 0.138582
v -0.057403 0.800000 0.138582
v -0.106066 1.200000 0.106066
v -0.106066 0.800000 0.106066
v -0.138582 1.200000 0.057403
v -0.138582 0.800000 0.057403
v -0.150001 1.200000 -0.000000
v -0.150001 0.800000 -0.000000
v -0.138582 1.200000 -0.057402
v -0.138582 0.800000 -0.057402
v -0.106066 1.200000 -0.106066
v -0.106066 0.800000 -0.106066
v -0.057403 1.200000 -0.138582
v -0.057403 0.800000 -0.138582
vt 1.000000 0.500000
vt 1.000000 1.000000
vt 0.937500 1.000000
vt 0.937500 0.500000
vt 0.875000 1.000000
vt 0.875000 0.500000
vt 0.812500 1.000000
vt 0.812500 0.500000
vt 0.750000 1.000000
vt 0.750000 0.500000
vt 0.687500 1.000000
vt 0.687500 0.500000
vt 0.625000 1.000000
vt 0.625000 0.500000
vt 0.562500 1.000000
vt 0.562500 0.500000
vt 0.500000 1.000000
vt 0.500000 0.500000
vt 0.437500 1.000000
vt 0.437500 0.500000
vt 0.375000 1.000000
vt 0.375000 0.500000
vt 0.312500 1.000000
vt 0.312500 0.500000
vt 0.250000 1.000000
vt 0.250000 0.500000
vt 0.187500 1.000000
vt 0.187500 0.500000
vt 0.125000 1.000000
vt 0.125000 0.500000
vt 0.341844 0.471731
vt 0.250000 0.490000
vt 0.158156 0.471731
vt 0.080294 0.419706
vt 0.028269 0.341844
vt 0.010000 0.250000
vt 0.028269 0.158156
vt 0.080294 0.080294
vt 0.158156 0.028269
vt 0.250000 0.010000
vt 0.341844 0.028269
vt 0.419706 0.080294
vt 0.471731 0.158156
vt 0.490000 0.250000
vt 0.471731 0.341844
vt 0.419706 0.419706
vt 0.062500 1.000000
vt 0.062500 0.500000
vt 0.000000 1.000000
vt 0.000000 0.500000
vt 0.750000 0.490000
vt 0.841844 0.471731
vt 0.919706 0.419706
vt 0.971731 0.341844
vt 0.990000 0.250000
vt 0.971731 0.158156
vt 0.919706 0.080294
vt 0.841844 0.028269
vt 0.750000 0.010000
vt 0.658156 0.028269
vt 0.580294 0.080294
vt 0.528269 0.158156
vt 0.510000 0.250000
vt 0.528269 0.341844
vt 0.580294 0.419706
vt 0.658156 0.471731
vn 0.0000 -0.6657 -0.7462
vn 0.0000 0.6657 -0.7462
vn 0.2856 0.6657 -0.6894
vn 0.2856 -0.6657 -0.6894
vn 0.5276 0.6657 -0.5276
vn 0.5276 -0.6657 -0.5276
vn 0.6894 0.6657 -0.2856
vn 0.6894 -0.6657 -0.2856
vn 0.7462 0.6657 -0.0000
vn 0.7462 -0.6657 -0.0000
vn 0.6894 0.6657 0.2856
vn 0.6894 -0.6657 0.2856
vn 0.5276 0.6657 0.5276
vn 0.5276 -0.6657 0.5276
vn 0.2856 0.6657 0.6894
vn 0.2856 -0.6657 0.6894
vn 0.0000 0.6657 0.7462
vn 0.0000 -0.6657 0.7462
vn -0.2856 0.6657 0.6894
vn -0.2856 -0.6657 0.6894
vn -0.5276 0.6657 0.5276
vn -0.5276 -0.6657 0.5276
vn -0.6894 0.6657 0.2856
vn -0.6894 -0.6657 0.2856
vn -0.7462 0.6657 -0.0000
vn -0.7462 -0.6657 -0.0000
vn -0.6894 0.6657 -0.2856
vn -0.6894 -0.6657 -0.2856
vn -0.5276 0.6657 -0.5276
vn -0.5276 -0.6657 -0.5276
vn -0.2856 0.6657 -0.6894
vn -0.2856 -0.6657 -0.6894
usemtl Emmision
s 1
f 1/1/1 2/2/2 3/3/3 4/4/4
f 4/4/4 3/3/3 5/5/5 6/6/6
f 6/6/6 5/5/5 7/7/7 8/8/8
f 8/8/8 7/7/7 9/9/9 10/10/10
f 10/10/10 9/9/9 11/11/11 12/12/12
f 12/12/12 11/11/11 13/13/13 14/14/14
f 14/14/14 13/13/13 15/15/15 16/16/16
f 16/16/16 15/15/15 17/17/17 18/18/18
f 18/18/18 17/17/17 19/19/19 20/20/20
f 20/20/20 19/19/19 21/21/21 22/22/22
f 22/22/22 21/21/21 23/23/23 24/24/24
f 24/24/24 23/23/23 25/25/25 26/26/26
f 26/26/26 25/25/25 27/27/27 28/28/28
f 28/28/28 27/27/27 29/29/29 30/30/30
f 3/31/3 2/32/2 31/33/31 29/34/29 27/35/27 25/36/25 23/37/23 21/38/21 19/39/19 17/40/17 15/41/15 13/42/13 11/43/11 9/44/9 7/45/7 5/46/5
f 30/30/30 29/29/29 31/47/31 32/48/32
f 32/48/32 31/47/31 2/49/2 1/50/1
f 1/51/1 4/52/4 6/53/6 8/54/8 10/55/10 12/56/12 14/57/14 16/58/16 18/59/18 20/60/20 22/61/22 24/62/24 26/63/26 28/64/28 30/65/30 32/66/32
o StandingLamp_Cube.149
v -0.150001 -0.025000 0.150000
v -0.150001 0.025000 0.150000
v -0.150001 0.025000 -0.150000
v -0.150001 -0.025000 -0.150000
v 0.150000 0.025000 -0.150000
v 0.150000 -0.025000 -0.150000
v 0.150000 0.025000 0.150000
v 0.150000 -0.025000 0.150000
vt 0.375000 0.000000
vt 0.625000 0.000000
vt 0.625000 0.250000
vt 0.375000 0.250000
vt 0.625000 0.500000
vt 0.375000 0.500000
vt 0.625000 0.750000
vt 0.375000 0.750000
vt 0.625000 1.000000
vt 0.375000 1.000000
vt 0.125000 0.500000
vt 0.125000 0.750000
vt 0.875000 0.500000
vt 0.875000 0.750000
vn -1.0000 0.0000 0.0000
vn 0.0000 0.0000 -1.0000
vn 1.0000 0.0000 0.0000
vn 0.0000 0.0000 1.0000
vn 0.0000 -1.0000 -0.0000
vn 0.0000 1.0000 0.0000
usemtl Aluminium
s off
f 33/67/33 34/68/33 35/69/33 36/70/33
f 36/70/34 35/69/34 37/71/34 38/72/34
f 38/72/35 37/71/35 39/73/35 40/74/35
f 40/74/36 39/73/36 34/75/36 33/76/36
f 36/77/37 38/72/37 40/74/37 33/78/37
f 37/71/38 35/79/38 34/80/38 39/73/38
o TopStandingLamp_Cylinder.004
v -0.000000 0.000000 -0.025000
v -0.000000 1.000000 -0.025000
v 0.009567 1.000000 -0.023097
v 0.009567 0.000000 -0.023097
v 0.017677 1.000000 -0.017678
v 0.017677 0.000000 -0.017678
v 0.023097 1.000000 -0.009567
v 0.023097 0.000000 -0.009567
v 0.025000 1.000000 0.000000
v 0.025000 0.000000 0.000000
v 0.023097 1.000000 0.009567
v 0.023097 0.000000 0.009567
v 0.017677 1.000000 0.017677
v 0.017677 0.000000 0.017677
v 0.009567 1.000000 0.023097
v 0.009567 0.000000 0.023097
v -0.000000 1.000000 0.025000
v -0.000000 0.000000 0.025000
v -0.009567 1.000000 0.023097
v -0.009567 0.000000 0.023097
v -0.017678 1.000000 0.017677
v -0.017678 0.000000 0.017677
v -0.023097 1.000000 0.009567
v -0.023097 0.000000 0.009567
v -0.025001 1.000000 0.000000
v -0.025001 0.000000 0.000000
v -0.023097 1.000000 -0.009567
v -0.023097 0.000000 -0.009567
v -0.017678 1.000000 -0.017678
v -0.017678 0.000000 -0.017678
v -0.009567 1.000000 -0.023097
v -0.009567 0.000000 -0.023097
vt 1.000000 0.500000
vt 1.000000 1.000000
vt 0.937500 1.000000
vt 0.937500 0.500000
vt 0.875000 1.000000
vt 0.875000 0.500000
vt 0.812500 1.000000
vt 0.812500 0.500000
vt 0.750000 1.000000
vt 0.750000 0.500000
vt 0.687500 1.000000
vt 0.687500 0.500000
vt 0.625000 1.000000
vt 0.625000 0.500000
vt 0.562500 1.000000
vt 0.562500 0.500000
vt 0.500000 1.000000
vt 0.500000 0.500000
vt 0.437500 1.000000
vt 0.437500 0.500000
vt 0.375000 1.000000
vt 0.375000 0.500000
vt 0.312500 1.000000
vt 0.312500 0.500000
vt 0.250000 1.000000
vt 0.250000 0.500000
vt 0.187500 1.000000
vt 0.187500 0.500000
vt 0.125000 1.000000
vt 0.125000 0.500000
vt 0.341844 0.471731
vt 0.250000 0.490000
vt 0.158156 0.471731
vt 0.080294 0.419706
vt 0.028269 0.341844
vt 0.010000 0.250000
vt 0.028269 0.158156
vt 0.080294 0.080294
vt 0.158156 0.028269
vt 0.250000 0.010000
vt 0.341844 0.028269
vt 0.419706 0.080294
vt 0.471731 0.158156
vt 0.490000 0.250000
vt 0.471731 0.341844
vt 0.419706 0.419706
vt 0.062500 1.000000
vt 0.062500 0.500000
vt 0.000000 1.000000
vt 0.000000 0.500000
vt 0.750000 0.490000
vt 0.841844 0.471731
vt 0.919706 0.419706
vt 0.971731 0.341844
vt 0.990000 0.250000
vt 0.971731 0.158156
vt 0.919706 0.080294
vt 0.841844 0.028269
vt 0.750000 0.010000
vt 0.658156 0.028269
vt 0.580294 0.080294
vt 0.528269 0.158156
vt 0.510000 0.250000
vt 0.528269 0.341844
vt 0.580294 0.419706
vt 0.658156 0.471731
vn 0.0000 -0.6657 -0.7462
vn 0.0000 0.6657 -0.7462
vn 0.2856 0.6657 -0.6894
vn 0.2856 -0.6657 -0.6894
vn 0.5276 0.6657 -0.5276
vn 0.5276 -0.6657 -0.5276
vn 0.6894 0.6657 -0.2856
vn 0.6894 -0.6657 -0.2856
vn 0.7462 0.6657 0.0000
vn 0.7462 -0.6657 0.0000
vn 0.6894 0.6657 0.2856
vn 0.6894 -0.6657 0.2856
vn 0.5276 0.6657 0.5276
vn 0.5276 -0.6657 0.5276
vn 0.2856 0.6657 0.6894
vn 0.2856 -0.6657 0.6894
vn 0.0000 0.6657 0.7462
vn 0.0000 -0.6657 0.7462
vn -0.2856 0.6657 0.6894
vn -0.2856 -0.6657 0.6894
vn -0.5276 0.6657 0.5276
vn -0.5276 -0.6657 0.5276
vn -0.6894 0.6657 0.2856
vn -0.6894 -0.6657 0.2856
vn -0.7462 0.6657 0.0000
vn -0.7462 -0.6657 0.0000
vn -0.6894 0.6657 -0.2856
vn -0.6894 -0.6657 -0.2856
vn -0.5277 0.6657 -0.5277
vn -0.5277 -0.6657 -0.5277
vn -0.2855 0.6657 -0.6894
vn -0.2855 -0.6657 -0.6894
usemtl Aluminium
s 1
f 41/81/39 42/82/40 43/83/41 44/84/42
f 44/84/42 43/83/41 45/85/43 46/86/44
f 46/86/44 45/85/43 47/87/45 48/88/46
f 48/88/46 47/87/45 49/89/47 50/90/48
f 50/90/48 49/89/47 51/91/49 52/92/50
f 52/92/50 51/91/49 53/93/51 54/94/52
f 54/94/52 53/93/51 55/95/53 56/96/54
f 56/96/54 55/95/53 57/97/55 58/98/56
f 58/98/56 57/97/55 59/99/57 60/100/58
f 60/100/58 59/99/57 61/101/59 62/102/60
f 62/102/60 61/101/59 63/103/61 64/104/62
f 64/104/62 63/103/61 65/105/63 66/106/64
f 66/106/64 65/105/63 67/107/65 68/108/66
f 68/108/66 67/107/65 69/109/67 70/110/68
f 43/111/41 42/112/40 71/113/69 69/114/67 67/115/65 65/116/63 63/117/61 61/118/59 59/119/57 57/120/55 55/121/53 53/122/51 51/123/49 49/124/47 47/125/45 45/126/43
f 70/110/68 69/109/67 71/127/69 72/128/70
f 72/128/70 71/127/69 42/129/40 41/130/39
f 41/131/39 44/132/42 46/133/44 48/134/46 50/135/48 52/136/50 54/137/52 56/138/54 58/139/56 60/140/58 62/141/60 64/142/62 66/143/64 68/144/66 70/145/68 72/146/70
