# Blender v2.93.4 OBJ File: ''
# www.blender.org
mtllib piano.mtl
o Piano_Cube.024
v -0.313648 1.165026 -0.629999
v -0.313648 1.198787 -0.629999
v -0.313648 1.198788 -0.699999
v -0.313648 1.165026 -0.699999
v -0.013648 1.198788 -0.699999
v -0.013648 1.165026 -0.699999
v -0.013648 1.165025 0.630001
v -0.013648 1.198786 0.630001
v -0.013648 1.198786 0.700001
v -0.013648 1.165025 0.700001
v -0.313648 1.198786 0.700001
v -0.313648 1.165025 0.700001
v -0.313648 -0.018062 0.630001
v -0.013648 -0.018062 0.630001
v -0.013648 -0.018062 0.700001
v -0.313648 -0.018062 0.700001
v -0.332472 1.198787 -0.646827
v -0.332472 1.198788 -0.718697
v -0.013648 0.553128 0.700001
v -0.013648 0.688997 0.700001
v -0.064920 0.768340 0.700001
v -0.313648 0.768340 0.700001
v -0.313648 0.553128 0.700001
v -0.013648 0.847682 0.700001
v 0.037623 0.768340 0.700001
v 0.243463 0.553128 0.700001
v 0.288697 0.553128 0.700001
v 0.288697 0.672395 0.700001
v 0.283978 0.709111 0.700001
v 0.270538 0.740238 0.700001
v 0.250423 0.761036 0.700001
v 0.226697 0.768340 0.700001
v -0.313648 0.768340 -0.629999
v -0.313648 0.768340 -0.699999
v -0.313648 0.553128 -0.629999
v -0.313648 0.553128 -0.699999
v 0.037623 0.768340 0.630001
v 0.226697 0.768340 0.630001
v -0.013648 0.847682 0.630001
v -0.013648 0.062329 0.700001
v -0.313648 0.062329 0.700001
v -0.013648 0.062329 0.630001
v -0.013648 0.553128 0.630001
v -0.313648 0.062329 -0.699999
v -0.013648 0.553128 -0.699999
v -0.013648 0.062329 -0.699999
v -0.313648 0.062329 -0.629999
v -0.013648 0.688997 -0.699999
v 0.037623 0.768340 -0.699999
v 0.226697 0.768340 -0.699999
v 0.250423 0.761036 -0.699999
v 0.270538 0.740238 -0.699999
v 0.283978 0.709111 -0.699999
v 0.288697 0.672395 -0.699999
v 0.288697 0.553128 -0.699999
v 0.243463 0.553128 -0.699999
v -0.064920 0.768340 -0.699999
v 0.288697 0.027837 -0.629999
v 0.243463 0.027837 -0.629999
v 0.243463 -0.018062 -0.629999
v 0.288697 -0.018062 -0.629999
v -0.013648 0.847682 -0.699999
v -0.009745 0.817319 -0.699999
v 0.001369 0.791579 -0.699999
v 0.018003 0.774379 -0.699999
v 0.018003 0.774379 0.700001
v 0.001369 0.791579 0.700001
v -0.009745 0.817319 0.700001
v -0.009745 0.817319 0.630001
v 0.001369 0.791579 0.630001
v 0.018003 0.774379 0.630001
v 0.250423 0.761036 0.630001
v 0.270538 0.740238 0.630001
v 0.283978 0.709111 0.630001
v 0.288697 0.672395 0.630001
v 0.288697 0.553128 0.630001
v 0.288697 0.553128 0.104581
v 0.288697 0.672395 0.104581
v 0.283978 0.709111 0.104581
v 0.270538 0.740238 0.104581
v 0.250423 0.761036 0.104581
v 0.226697 0.768340 0.104581
v 0.018003 0.774379 0.104581
v 0.037623 0.768340 0.104581
v 0.001369 0.791579 0.104581
v -0.009745 0.817319 0.104581
v -0.013648 0.847682 0.104581
v 0.243463 0.027837 -0.699999
v 0.243463 -0.018062 -0.699999
v -0.313648 0.553128 0.630001
v -0.313648 0.062329 0.630001
v -0.013648 0.062329 0.104581
v -0.013648 0.553128 0.104581
v -0.013648 1.165026 0.104581
v -0.313648 0.768340 0.630001
v -0.313648 1.165025 0.630001
v -0.313648 1.198787 0.104581
v -0.313648 1.198786 0.630001
v -0.332472 1.198786 0.646830
v -0.332472 1.198787 0.107629
v -0.313648 -0.018062 0.104581
v -0.013648 -0.018062 0.104581
v -0.013648 1.198787 0.104581
v -0.013648 1.198787 -0.629999
v -0.013648 1.165026 -0.629999
v -0.313648 -0.018062 -0.699999
v -0.013648 -0.018062 -0.699999
v -0.013648 -0.018062 -0.629999
v -0.313648 -0.018062 -0.629999
v 0.005176 1.198786 0.646830
v 0.005176 1.198786 0.718700
v 0.037623 0.768340 -0.629999
v 0.226697 0.768340 -0.629999
v -0.013648 0.847682 -0.629999
v -0.013648 0.553128 -0.629999
v -0.013648 0.062329 -0.629999
v -0.009745 0.817319 -0.629999
v 0.001369 0.791579 -0.629999
v 0.018003 0.774379 -0.629999
v 0.250423 0.761036 -0.629999
v 0.270538 0.740238 -0.629999
v 0.283978 0.709111 -0.629999
v 0.288697 0.672395 -0.629999
v 0.288697 0.553128 -0.629999
v 0.243463 0.553128 -0.104633
v 0.243463 0.553128 -0.629999
v 0.288697 0.553128 -0.104633
v -0.313648 0.062329 -0.104633
v -0.313648 0.553128 -0.104633
v -0.313648 0.768340 -0.104633
v -0.313648 1.165026 -0.104633
v -0.313648 1.198787 -0.104633
v -0.013648 0.553128 -0.104633
v 0.243463 0.553128 0.630001
v 0.288697 -0.018062 -0.699999
v 0.243463 -0.018062 0.700001
v 0.243463 -0.018062 0.630001
v 0.288697 -0.018062 0.630001
v 0.288697 -0.018062 0.700001
v 0.243463 0.027837 0.630001
v 0.288697 0.027837 0.630001
v 0.288697 0.027837 -0.699999
v 0.288697 0.027837 0.700001
v 0.243463 0.027837 0.700001
v 0.005176 1.198787 -0.107284
v 0.005176 1.198787 -0.646827
v 0.005176 1.220970 -0.646827
v 0.005176 1.220970 -0.107284
v -0.332472 1.220969 0.646830
v -0.332472 1.220970 0.107629
v -0.332472 1.220970 -0.646827
v -0.332472 1.220970 -0.718697
v -0.013648 1.198787 -0.104633
v -0.332472 1.198786 0.718700
v 0.005176 1.198788 -0.718697
v 0.005176 1.220969 0.646830
v -0.332472 1.220969 0.718700
v 0.005176 1.220969 0.718700
v 0.005176 1.220970 0.107629
v 0.005176 1.220970 -0.718697
v -0.313648 -0.018062 -0.104633
v -0.313648 0.027838 -0.104633
v -0.313648 0.027838 -0.629999
v -0.013648 0.027838 -0.699999
v -0.013648 0.027838 -0.629999
v -0.013648 0.027838 0.104581
v -0.013648 0.027838 0.630001
v -0.313648 0.027838 0.700001
v -0.313648 0.027838 0.630001
v -0.313648 0.027838 -0.699999
v -0.013648 0.027838 0.700001
v 0.288697 0.062329 0.630001
v 0.288697 0.062329 0.700001
v 0.243463 0.062329 0.700001
v 0.243463 0.062329 0.630001
v 0.288697 0.062329 -0.699999
v 0.288697 0.062329 -0.629999
v 0.243463 0.062329 -0.699999
v 0.243463 0.062329 -0.629999
v -0.013648 0.027838 -0.104633
v -0.013648 0.062329 -0.104633
v -0.013648 0.062329 0.000001
v -0.013648 0.027838 0.000001
v -0.313648 0.027838 0.104581
v -0.313648 0.062329 0.104581
v -0.313648 0.062329 0.000001
v -0.313648 0.027838 0.000001
v -0.013648 -0.018062 0.000001
v 0.136640 -0.022726 0.000001
v 0.136640 -0.002203 0.000001
v -0.313648 -0.018062 0.000001
v -0.332472 1.220970 -0.107284
v -0.332472 1.220970 0.000001
v 0.005176 1.220970 0.000001
v -0.013648 1.198787 0.000001
v 0.005176 1.198787 0.000001
v 0.005176 1.198787 0.107629
v -0.332472 1.198787 -0.107284
v -0.332472 1.198787 0.000001
v -0.013648 0.553128 0.000001
v 0.243463 0.553128 0.000001
v 0.243463 0.553128 0.104581
v -0.313648 1.165026 0.104581
v -0.313648 1.198787 0.000001
v -0.313648 1.165026 0.000001
v -0.313648 0.768340 0.104581
v -0.313648 0.768340 0.000001
v -0.313648 0.553128 0.104581
v -0.313648 0.553128 0.000001
v 0.288697 0.553128 0.000001
v -0.013648 1.165026 -0.104633
v -0.013648 1.165026 0.000001
v -0.013648 -0.018062 -0.104633
v 0.037623 0.768340 -0.104633
v 0.037623 0.768340 0.000001
v 0.226697 0.768340 0.000001
v 0.226697 0.768340 -0.104633
v -0.013648 0.847682 -0.104633
v -0.013648 0.847682 0.000001
v -0.009745 0.817319 0.000001
v -0.009745 0.817319 -0.104633
v 0.001369 0.791579 0.000001
v 0.001369 0.791579 -0.104633
v 0.018003 0.774379 0.000001
v 0.018003 0.774379 -0.104633
v 0.250423 0.761036 0.000001
v 0.250423 0.761036 -0.104633
v 0.270538 0.740238 0.000001
v 0.270538 0.740238 -0.104633
v 0.283978 0.709111 0.000001
v 0.283978 0.709111 -0.104633
v 0.288697 0.672395 0.000001
v 0.288697 0.672395 -0.104633
v 0.136640 -0.002203 0.000001
v 0.136640 -0.022726 0.000001
v 0.136640 -0.002203 0.104581
v 0.136640 -0.022726 0.104581
v 0.136640 -0.022726 -0.104633
v 0.136640 -0.002203 -0.104633
vt 0.618971 0.232289
vt 0.625000 0.232289
vt 0.625000 0.250000
vt 0.618971 0.250000
vt 0.625000 0.500000
vt 0.618971 0.500000
vt 0.618971 0.742758
vt 0.625000 0.742758
vt 0.625000 0.750000
vt 0.618971 0.750000
vt 0.625000 1.000000
vt 0.618971 1.000000
vt 0.125000 0.742758
vt 0.375000 0.742758
vt 0.375000 0.750000
vt 0.125000 0.750000
vt 0.625000 0.232289
vt 0.625000 0.250000
vt 0.476998 0.750000
vt 0.501261 0.750000
vt 0.515429 0.792726
vt 0.515429 1.000000
vt 0.476998 1.000000
vt 0.529597 0.750000
vt 0.515429 0.750000
vt 0.476998 0.750000
vt 0.476998 0.750000
vt 0.498296 0.750000
vt 0.504852 0.750000
vt 0.513756 0.750000
vt 0.514994 0.750000
vt 0.515429 0.750000
vt 0.515429 0.232289
vt 0.515429 0.250000
vt 0.476998 0.232289
vt 0.476998 0.250000
vt 0.515429 0.742758
vt 0.515429 0.742758
vt 0.529597 0.742758
vt 0.385006 0.750000
vt 0.385006 1.000000
vt 0.385006 0.742758
vt 0.476998 0.742758
vt 0.385006 0.250000
vt 0.476998 0.500000
vt 0.385006 0.500000
vt 0.385006 0.232289
vt 0.501261 0.500000
vt 0.515429 0.500000
vt 0.515429 0.500000
vt 0.514994 0.500000
vt 0.513756 0.500000
vt 0.504852 0.500000
vt 0.498296 0.500000
vt 0.476998 0.500000
vt 0.476998 0.500000
vt 0.515429 0.457274
vt 0.476998 0.517711
vt 0.476998 0.517711
vt 0.476998 0.517711
vt 0.476998 0.517711
vt 0.529597 0.500000
vt 0.524175 0.500000
vt 0.519579 0.500000
vt 0.516507 0.500000
vt 0.515429 0.750000
vt 0.515429 0.750000
vt 0.515429 0.750000
vt 0.515429 0.750000
vt 0.524175 0.750000
vt 0.524175 0.742758
vt 0.515429 0.742758
vt 0.515429 0.742758
vt 0.514994 0.742758
vt 0.513756 0.742758
vt 0.504852 0.742758
vt 0.498296 0.742758
vt 0.476998 0.742758
vt 0.476998 0.650618
vt 0.498296 0.650618
vt 0.504852 0.650618
vt 0.513756 0.650618
vt 0.514994 0.650618
vt 0.515429 0.650618
vt 0.515429 0.650618
vt 0.515429 0.650618
vt 0.515429 0.650618
vt 0.524175 0.650618
vt 0.529597 0.650618
vt 0.476998 0.500000
vt 0.476998 0.500000
vt 0.385006 0.000000
vt 0.476998 0.000000
vt 0.476998 0.007242
vt 0.385006 0.007242
vt 0.385006 0.650618
vt 0.476998 0.650618
vt 0.618971 0.650618
vt 0.515429 0.000000
vt 0.515429 0.007242
vt 0.618971 0.000000
vt 0.618971 0.007242
vt 0.625000 0.099382
vt 0.625000 0.007242
vt 0.625000 0.007242
vt 0.625000 0.099382
vt 0.125000 0.650618
vt 0.375000 0.650618
vt 0.625000 0.650618
vt 0.625000 0.000000
vt 0.625000 0.517711
vt 0.618971 0.517711
vt 0.125000 0.500000
vt 0.375000 0.500000
vt 0.375000 0.517711
vt 0.125000 0.517711
vt 0.625000 0.742758
vt 0.625000 0.750000
vt 0.515429 0.517711
vt 0.515429 0.517711
vt 0.529597 0.517711
vt 0.476998 0.517711
vt 0.385006 0.517711
vt 0.524175 0.517711
vt 0.515429 0.517711
vt 0.515429 0.500000
vt 0.515429 0.517711
vt 0.515429 0.500000
vt 0.514994 0.517711
vt 0.513756 0.517711
vt 0.504852 0.517711
vt 0.498296 0.517711
vt 0.476998 0.517711
vt 0.476998 0.612507
vt 0.476998 0.517711
vt 0.476998 0.612507
vt 0.385006 0.137493
vt 0.476998 0.137493
vt 0.515429 0.137493
vt 0.618971 0.137493
vt 0.625000 0.137493
vt 0.476998 0.612507
vt 0.476998 0.742758
vt 0.476998 0.500000
vt 0.476998 0.750000
vt 0.476998 0.742758
vt 0.476998 0.742758
vt 0.476998 0.750000
vt 0.476998 0.742758
vt 0.476998 0.742758
vt 0.476998 0.500000
vt 0.476998 0.750000
vt 0.476998 0.750000
vt 0.625000 0.612507
vt 0.625000 0.517711
vt 0.625000 0.517711
vt 0.625000 0.612507
vt 0.625000 0.007242
vt 0.625000 0.099382
vt 0.625000 0.232289
vt 0.625000 0.250000
vt 0.625000 0.612507
vt 0.625000 1.000000
vt 0.625000 0.000000
vt 0.625000 0.500000
vt 0.625000 0.742758
vt 0.875000 0.742758
vt 0.875000 0.750000
vt 0.625000 0.750000
vt 0.625000 0.650618
vt 0.875000 0.650618
vt 0.625000 0.500000
vt 0.875000 0.500000
vt 0.875000 0.517711
vt 0.625000 1.000000
vt 0.625000 0.000000
vt 0.375000 0.137493
vt 0.378541 0.137493
vt 0.378541 0.232289
vt 0.375000 0.232289
vt 0.378541 0.500000
vt 0.378541 0.517711
vt 0.378541 0.650618
vt 0.378541 0.742758
vt 0.375000 0.000000
vt 0.378541 0.000000
vt 0.378541 0.007242
vt 0.375000 0.007242
vt 0.378541 0.250000
vt 0.375000 0.250000
vt 0.378541 0.750000
vt 0.378541 1.000000
vt 0.375000 1.000000
vt 0.476998 0.517711
vt 0.476998 0.500000
vt 0.476998 0.742758
vt 0.476998 0.750000
vt 0.476998 0.750000
vt 0.476998 0.742758
vt 0.476998 0.500000
vt 0.476998 0.517711
vt 0.476998 0.500000
vt 0.476998 0.517711
vt 0.476998 0.517711
vt 0.476998 0.500000
vt 0.476998 0.742758
vt 0.476998 0.742758
vt 0.476998 0.750000
vt 0.476998 0.750000
vt 0.378541 0.612507
vt 0.385006 0.612507
vt 0.385006 0.630234
vt 0.378541 0.630234
vt 0.378541 0.099382
vt 0.385006 0.099382
vt 0.385006 0.119766
vt 0.378541 0.119766
vt 0.375000 0.630234
vt 0.375000 0.630234
vt 0.378541 0.630234
vt 0.375000 0.099382
vt 0.375000 0.119766
vt 0.875000 0.612507
vt 0.875000 0.630234
vt 0.625000 0.630234
vt 0.625000 0.630234
vt 0.625000 0.630234
vt 0.625000 0.650618
vt 0.625000 0.137493
vt 0.625000 0.119766
vt 0.625000 0.119766
vt 0.625000 0.137493
vt 0.476998 0.630234
vt 0.476998 0.630234
vt 0.476998 0.650618
vt 0.618971 0.099382
vt 0.625000 0.119766
vt 0.618971 0.119766
vt 0.515429 0.099382
vt 0.515429 0.119766
vt 0.476998 0.099382
vt 0.476998 0.119766
vt 0.476998 0.630234
vt 0.618971 0.612507
vt 0.618971 0.630234
vt 0.125000 0.612507
vt 0.375000 0.612507
vt 0.125000 0.630234
vt 0.515429 0.612507
vt 0.515429 0.630234
vt 0.515429 0.630234
vt 0.515429 0.612507
vt 0.529597 0.612507
vt 0.529597 0.630234
vt 0.524175 0.630234
vt 0.524175 0.612507
vt 0.515429 0.630234
vt 0.515429 0.612507
vt 0.515429 0.630234
vt 0.515429 0.612507
vt 0.514994 0.630234
vt 0.514994 0.612507
vt 0.513756 0.630234
vt 0.513756 0.612507
vt 0.504852 0.630234
vt 0.504852 0.612507
vt 0.498296 0.630234
vt 0.498296 0.612507
vt 0.378541 0.630234
vt 0.375000 0.630234
vt 0.378541 0.650618
vt 0.375000 0.650618
vt 0.375000 0.612507
vt 0.378541 0.612507
vn -1.0000 0.0000 0.0000
vn 0.0000 0.0000 -1.0000
vn 1.0000 0.0000 0.0000
vn 0.0000 0.0000 1.0000
vn 0.0000 -1.0000 0.0000
vn 0.0000 1.0000 0.0000
vn 0.9918 0.1275 0.0000
vn 0.9181 0.3964 0.0000
vn 0.7188 0.6952 0.0000
vn 0.2942 0.9558 0.0000
vn 0.2942 0.9557 0.0000
vn 0.1960 0.9806 0.0000
vn -0.0310 -0.9995 0.0000
usemtl KerangkaLemari
s off
f 1/1/1 2/2/1 3/3/1 4/4/1
f 4/4/2 3/3/2 5/5/2 6/6/2
f 7/7/3 8/8/3 9/9/3 10/10/3
f 10/10/4 9/9/4 11/11/4 12/12/4
f 13/13/5 14/14/5 15/15/5 16/16/5
f 3/3/5 2/2/5 17/17/5 18/18/5
f 19/19/4 20/20/4 21/21/4 22/22/4 23/23/4
f 21/21/4 24/24/4 10/10/4 12/12/4 22/22/4
f 25/25/4 20/20/4 19/19/4 26/26/4 27/27/4 28/28/4 29/29/4 30/30/4 31/31/4 32/32/4
f 33/33/1 1/1/1 4/4/1 34/34/1
f 35/35/1 33/33/1 34/34/1 36/36/1
f 37/37/6 25/25/6 32/32/6 38/38/6
f 39/39/3 7/7/3 10/10/3 24/24/3
f 40/40/4 19/19/4 23/23/4 41/41/4
f 42/42/3 43/43/3 19/19/3 40/40/3
f 44/44/2 36/36/2 45/45/2 46/46/2
f 47/47/1 35/35/1 36/36/1 44/44/1
f 45/45/2 48/48/2 49/49/2 50/50/2 51/51/2 52/52/2 53/53/2 54/54/2 55/55/2 56/56/2
f 36/36/2 34/34/2 57/57/2 48/48/2 45/45/2
f 58/58/4 59/59/4 60/60/4 61/61/4
f 62/62/2 63/63/2 64/64/2 65/65/2 49/49/2 48/48/2 57/57/2
f 25/25/4 66/66/4 67/67/4 68/68/4 24/69/4 21/21/4 20/20/4
f 39/39/7 24/24/7 68/70/7 69/71/7
f 69/71/8 68/70/8 67/67/8 70/72/8
f 70/72/9 67/67/9 66/66/9 71/73/9
f 71/73/10 66/66/10 25/25/10 37/37/10
f 34/34/2 4/4/2 6/6/2 62/62/2 57/57/2
f 38/38/11 32/32/11 31/31/11 72/74/11
f 72/74/9 31/31/9 30/30/9 73/75/9
f 73/75/8 30/30/8 29/29/8 74/76/8
f 74/76/7 29/29/7 28/28/7 75/77/7
f 76/78/3 75/77/3 28/28/3 27/27/3
f 77/79/3 78/80/3 75/77/3 76/78/3
f 79/81/7 74/76/7 75/77/7 78/80/7
f 80/82/8 73/75/8 74/76/8 79/81/8
f 81/83/9 72/74/9 73/75/9 80/82/9
f 82/84/11 38/38/11 72/74/11 81/83/11
f 83/85/10 71/73/10 37/37/10 84/86/10
f 85/87/9 70/72/9 71/73/9 83/85/9
f 86/88/8 69/71/8 70/72/8 85/87/8
f 87/89/7 39/39/7 69/71/7 86/88/7
f 59/59/1 88/90/1 89/91/1 60/60/1
f 41/92/1 23/93/1 90/94/1 91/95/1
f 92/96/3 93/97/3 43/43/3 42/42/3
f 87/89/3 94/98/3 7/7/3 39/39/3
f 84/86/6 37/37/6 38/38/6 82/84/6
f 23/93/1 22/99/1 95/100/1 90/94/1
f 22/99/1 12/101/1 96/102/1 95/100/1
f 97/103/5 98/104/5 99/105/5 100/106/5
f 101/107/5 102/108/5 14/14/5 13/13/5
f 94/98/3 103/109/3 8/8/3 7/7/3
f 12/101/1 11/110/1 98/104/1 96/102/1
f 6/6/3 5/5/3 104/111/3 105/112/3
f 106/113/5 107/114/5 108/115/5 109/116/5
f 9/9/5 8/8/5 110/117/5 111/118/5
f 49/49/6 112/119/6 113/120/6 50/50/6
f 62/62/3 6/6/3 105/112/3 114/121/3
f 46/46/3 45/45/3 115/122/3 116/123/3
f 62/62/7 114/121/7 117/124/7 63/63/7
f 63/63/8 117/124/8 118/125/8 64/126/8
f 64/126/9 118/125/9 119/127/9 65/128/9
f 65/128/10 119/127/10 112/119/10 49/49/10
f 50/50/11 113/120/11 120/129/11 51/51/11
f 51/51/9 120/129/9 121/130/9 52/52/9
f 52/52/8 121/130/8 122/131/8 53/53/8
f 53/53/7 122/131/7 123/132/7 54/54/7
f 55/55/3 54/54/3 123/132/3 124/133/3
f 125/134/5 126/135/5 124/133/5 127/136/5
f 128/137/1 129/138/1 35/35/1 47/47/1
f 129/138/1 130/139/1 33/33/1 35/35/1
f 130/139/1 131/140/1 1/1/1 33/33/1
f 131/140/1 132/141/1 2/2/1 1/1/1
f 133/142/5 115/122/5 126/135/5 125/134/5
f 19/19/5 43/43/5 134/143/5 26/26/5
f 115/122/5 45/45/5 56/56/5 126/135/5
f 60/60/5 89/91/5 135/144/5 61/61/5
f 136/145/5 137/146/5 138/147/5 139/148/5
f 140/149/2 141/150/2 138/147/2 137/146/2
f 88/90/2 142/151/2 135/144/2 89/91/2
f 143/152/4 144/153/4 136/145/4 139/148/4
f 141/150/3 143/152/3 139/148/3 138/147/3
f 144/153/1 140/149/1 137/146/1 136/145/1
f 142/151/3 58/58/3 61/61/3 135/144/3
f 145/154/3 146/155/3 147/156/3 148/157/3
f 100/106/1 99/105/1 149/158/1 150/159/1
f 18/18/1 17/17/1 151/160/1 152/161/1
f 153/162/5 104/111/5 146/155/5 145/154/5
f 11/11/5 9/9/5 111/118/5 154/163/5
f 98/104/5 11/110/5 154/164/5 99/105/5
f 104/111/5 5/5/5 155/165/5 146/155/5
f 5/5/5 3/3/5 18/18/5 155/165/5
f 156/166/6 149/167/6 157/168/6 158/169/6
f 159/170/6 150/171/6 149/167/6 156/166/6
f 160/172/6 152/173/6 151/174/6 147/156/6
f 154/163/4 111/118/4 158/169/4 157/175/4
f 155/165/2 18/18/2 152/161/2 160/172/2
f 146/155/3 155/165/3 160/172/3 147/156/3
f 99/105/1 154/164/1 157/176/1 149/158/1
f 111/118/3 110/117/3 156/166/3 158/169/3
f 161/177/1 162/178/1 163/179/1 109/180/1
f 107/114/3 164/181/3 165/182/3 108/115/3
f 102/108/3 166/183/3 167/184/3 14/14/3
f 16/185/1 168/186/1 169/187/1 13/188/1
f 109/180/1 163/179/1 170/189/1 106/190/1
f 106/190/2 170/189/2 164/181/2 107/114/2
f 14/14/3 167/184/3 171/191/3 15/15/3
f 15/15/4 171/191/4 168/192/4 16/193/4
f 88/90/5 59/59/5 165/194/5 164/195/5
f 172/196/3 173/197/3 143/152/3 141/150/3
f 173/197/4 174/198/4 144/153/4 143/152/4
f 175/199/2 172/196/2 141/150/2 140/149/2
f 176/200/3 177/201/3 58/58/3 142/151/3
f 178/202/2 176/200/2 142/151/2 88/90/2
f 59/59/4 179/203/4 116/204/4 165/194/4
f 177/201/4 179/203/4 59/59/4 58/58/4
f 162/178/1 128/137/1 47/47/1 163/179/1
f 166/183/3 92/96/3 42/42/3 167/184/3
f 168/186/1 41/92/1 91/95/1 169/187/1
f 163/179/1 47/47/1 44/44/1 170/189/1
f 170/189/2 44/44/2 46/46/2 164/181/2
f 171/191/4 40/40/4 41/41/4 168/192/4
f 134/143/2 76/78/2 172/196/2 175/199/2
f 27/27/4 26/26/4 174/198/4 173/197/4
f 76/78/3 27/27/3 173/197/3 172/196/3
f 26/26/1 134/143/1 175/199/1 174/198/1
f 124/133/4 126/135/4 179/203/4 177/201/4
f 126/135/1 56/56/1 178/202/1 179/203/1
f 56/56/2 55/55/2 176/200/2 178/202/2
f 55/55/3 124/133/3 177/201/3 176/200/3
f 179/203/6 178/202/6 46/205/6 116/204/6
f 175/199/2 140/149/2 167/206/2 42/207/2
f 178/202/2 88/90/2 164/195/2 46/205/2
f 174/198/6 175/199/6 42/207/6 40/208/6
f 140/149/5 144/153/5 171/209/5 167/206/5
f 144/153/4 174/198/4 40/208/4 171/209/4
f 180/210/3 181/211/3 182/212/3 183/213/3
f 184/214/1 185/215/1 186/216/1 187/217/1
f 183/213/4 188/218/4 189/219/4 190/220/4
f 101/221/1 184/214/1 187/217/1 191/222/1
f 148/157/6 192/223/6 193/224/6 194/225/6
f 103/109/5 195/226/5 196/227/5 197/228/5
f 198/229/1 199/230/1 193/231/1 192/232/1
f 197/228/3 196/227/3 194/225/3 159/170/3
f 93/97/5 200/233/5 201/234/5 202/235/5
f 203/236/1 97/103/1 204/237/1 205/238/1
f 206/239/1 203/236/1 205/238/1 207/240/1
f 208/241/1 206/239/1 207/240/1 209/242/1
f 185/215/1 208/241/1 209/242/1 186/216/1
f 202/235/5 201/234/5 210/243/5 77/79/5
f 211/244/3 153/162/3 195/226/3 212/245/3
f 161/246/5 213/247/5 188/218/5 191/248/5
f 132/141/5 204/237/5 199/230/5 198/229/5
f 214/249/6 215/250/6 216/251/6 217/252/6
f 218/253/3 211/244/3 212/245/3 219/254/3
f 181/211/3 133/142/3 200/233/3 182/212/3
f 218/253/7 219/254/7 220/255/7 221/256/7
f 221/256/8 220/255/8 222/257/8 223/258/8
f 223/258/9 222/257/9 224/259/9 225/260/9
f 225/260/11 224/259/11 215/250/11 214/249/11
f 217/252/11 216/251/11 226/261/11 227/262/11
f 227/262/9 226/261/9 228/263/9 229/264/9
f 229/264/8 228/263/8 230/265/8 231/266/8
f 231/266/7 230/265/7 232/267/7 233/268/7
f 127/136/3 233/268/3 232/267/3 210/243/3
f 124/133/3 123/132/3 233/268/3 127/136/3
f 122/131/7 231/266/7 233/268/7 123/132/7
f 121/130/8 229/264/8 231/266/8 122/131/8
f 120/129/9 227/262/9 229/264/9 121/130/9
f 113/120/11 217/252/11 227/262/11 120/129/11
f 119/127/10 225/260/10 214/249/10 112/119/10
f 118/125/9 223/258/9 225/260/9 119/127/9
f 117/124/8 221/256/8 223/258/8 118/125/8
f 114/121/7 218/253/7 221/256/7 117/124/7
f 116/123/3 115/122/3 133/142/3 181/211/3
f 114/121/3 105/112/3 211/244/3 218/253/3
f 112/119/6 214/249/6 217/252/6 113/120/6
f 2/2/5 132/141/5 198/229/5 17/17/5
f 109/116/5 108/115/5 213/247/5 161/246/5
f 105/112/3 104/111/3 153/162/3 211/244/3
f 17/17/1 198/229/1 192/232/1 151/160/1
f 147/156/6 151/174/6 192/223/6 148/157/6
f 108/115/3 165/182/3 180/210/3 213/247/3
f 165/182/3 116/123/3 181/211/3 180/210/3
f 187/217/1 186/216/1 128/137/1 162/178/1
f 191/222/1 187/217/1 162/178/1 161/177/1
f 195/226/5 153/162/5 145/154/5 196/227/5
f 196/227/3 145/154/3 148/157/3 194/225/3
f 200/233/5 133/142/5 125/134/5 201/234/5
f 205/238/1 204/237/1 132/141/1 131/140/1
f 207/240/1 205/238/1 131/140/1 130/139/1
f 209/242/1 207/240/1 130/139/1 129/138/1
f 186/216/1 209/242/1 129/138/1 128/137/1
f 201/234/5 125/134/5 127/136/5 210/243/5
f 134/143/5 202/235/5 77/79/5 76/78/5
f 91/95/1 90/94/1 208/241/1 185/215/1
f 90/94/1 95/100/1 206/239/1 208/241/1
f 95/100/1 96/102/1 203/236/1 206/239/1
f 96/102/1 98/104/1 97/103/1 203/236/1
f 43/43/5 93/97/5 202/235/5 134/143/5
f 110/117/3 197/228/3 159/170/3 156/166/3
f 8/8/5 103/109/5 197/228/5 110/117/5
f 13/188/1 169/187/1 184/214/1 101/221/1
f 169/187/1 91/95/1 185/215/1 184/214/1
f 183/213/3 182/212/3 92/96/3 166/183/3
f 188/218/2 183/213/2 234/269/2 235/270/2
f 194/225/6 193/224/6 150/171/6 159/170/6
f 199/230/1 100/106/1 150/159/1 193/231/1
f 212/245/3 195/226/3 103/109/3 94/98/3
f 191/248/5 188/218/5 102/108/5 101/107/5
f 204/237/5 97/103/5 100/106/5 199/230/5
f 215/250/6 84/86/6 82/84/6 216/251/6
f 219/254/3 212/245/3 94/98/3 87/89/3
f 182/212/3 200/233/3 93/97/3 92/96/3
f 219/254/7 87/89/7 86/88/7 220/255/7
f 220/255/8 86/88/8 85/87/8 222/257/8
f 222/257/9 85/87/9 83/85/9 224/259/9
f 224/259/10 83/85/10 84/86/10 215/250/10
f 216/251/11 82/84/11 81/83/11 226/261/11
f 226/261/9 81/83/9 80/82/9 228/263/9
f 228/263/8 80/82/8 79/81/8 230/265/8
f 230/265/7 79/81/7 78/80/7 232/267/7
f 210/243/3 232/267/3 78/80/3 77/79/3
f 235/270/3 234/269/3 236/271/3 237/272/3
f 183/213/12 166/183/12 236/271/12 234/269/12
f 102/108/13 188/218/13 235/270/13 237/272/13
f 166/183/4 102/108/4 237/272/4 236/271/4
f 238/273/3 239/274/3 190/220/3 189/219/3
f 213/247/2 180/210/2 239/274/2 238/273/2
f 180/210/12 183/213/12 190/220/12 239/274/12
f 188/218/13 213/247/13 238/273/13 189/219/13
